<svg width="16" height="16" viewBox="0 0 16 16" fill="none" xmlns="http://www.w3.org/2000/svg">
<g id="attachment" clip-path="url(#clip0_175_1104)">
<path id="Vector (Stroke)" fill-rule="evenodd" clip-rule="evenodd" d="M10.7526 1.79071C10.2436 1.76078 9.67686 1.93285 9.13812 2.4716L3.13812 8.4716C2.26604 9.34368 1.96896 10.2854 2.01973 11.1485C2.07146 12.028 2.48856 12.8792 3.13812 13.5288C3.78767 14.1783 4.63887 14.5954 5.51836 14.6472C6.38146 14.698 7.32323 14.4009 8.19531 13.5288L14.1953 7.52879L15.1381 8.4716L9.13812 14.4716C8.0102 15.5995 6.70196 16.0524 5.44006 15.9782C4.19455 15.9049 3.04575 15.322 2.19531 14.4716C1.34487 13.6212 0.761962 12.4724 0.688697 11.2268C0.614467 9.96495 1.06739 8.65671 2.19531 7.52879L8.19531 1.52879C8.98989 0.734206 9.92313 0.406284 10.8309 0.45968C11.7222 0.512112 12.5377 0.92835 13.1381 1.52879C13.7386 2.12923 14.1548 2.9447 14.2072 3.83605C14.2606 4.74378 13.9327 5.67702 13.1381 6.4716L7.13812 12.4716C6.67687 12.9329 6.11863 13.1358 5.56507 13.1032C5.02789 13.0716 4.54575 12.822 4.19531 12.4716C3.84487 12.1212 3.5953 11.639 3.5637 11.1018C3.53113 10.5483 3.73406 9.99004 4.19531 9.52879L10.1953 3.52879L11.1381 4.4716L5.13812 10.4716C4.9327 10.677 4.88563 10.8688 4.89473 11.0235C4.9048 11.1947 4.98856 11.3792 5.13812 11.5288C5.28768 11.6783 5.4722 11.7621 5.64336 11.7722C5.79813 11.7813 5.98989 11.7342 6.19531 11.5288L12.1953 5.52879C12.7341 4.99004 12.9061 4.42328 12.8762 3.91434C12.8453 3.38902 12.5949 2.87116 12.1953 2.4716C11.7958 2.07204 11.2779 1.82161 10.7526 1.79071Z" fill="#3168F5"/>
</g>
<defs>
<clipPath id="clip0_175_1104">
<rect width="16" height="16" fill="white"/>
</clipPath>
</defs>
</svg>
