<svg width="56" height="57" viewBox="0 0 56 57" fill="none" xmlns="http://www.w3.org/2000/svg">
<path id="Star 3" d="M30.8523 0.906642C31.2421 -0.110204 32.7462 0.140389 32.7853 1.22871L33.3121 15.879C33.3389 16.625 34.1439 17.0797 34.7966 16.7175L47.6155 9.60526C48.5678 9.07691 49.5589 10.2357 48.8893 11.0945L39.8758 22.6559C39.4169 23.2446 39.7413 24.1104 40.474 24.2525L54.8656 27.044C55.9347 27.2514 55.9491 28.7761 54.8841 29.0037L40.5478 32.0664C39.8179 32.2224 39.5099 33.0941 39.9798 33.674L49.21 45.0631C49.8957 45.9092 48.9267 47.0865 47.9646 46.5762L35.0137 39.7072C34.3542 39.3575 33.558 39.8273 33.5452 40.5736L33.2952 55.2313C33.2766 56.3201 31.7775 56.5991 31.3685 55.5898L25.8628 42.0031C25.5825 41.3113 24.6705 41.1594 24.1811 41.7229L14.5677 52.7906C13.8536 53.6128 12.5259 52.8629 12.8614 51.8268L17.3771 37.8798C17.607 37.1697 17.0061 36.4671 16.2689 36.5842L1.7905 38.8832C0.714955 39.054 0.179937 37.6261 1.10289 37.0481L13.5271 29.2667C14.1597 28.8705 14.1509 27.946 13.511 27.5619L0.942087 20.0165C0.00838891 19.4559 0.516355 18.0182 1.59494 18.1687L16.1142 20.1939C16.8534 20.297 17.441 19.5832 17.1977 18.8776L12.4195 5.01835C12.0645 3.98879 13.3778 3.21396 14.1073 4.02251L23.9279 14.9067C24.4279 15.4609 25.3368 15.2918 25.6041 14.5948L30.8523 0.906642Z" fill="#3168F5"/>
</svg>
